<svg xmlns="http://www.w3.org/2000/svg" width="16" height="16" fill="currentColor" class="bi bi-trash" viewBox="0 0 16 16">
  <path d="M6.5 1.5a.5.5 0 0 0-.5.5v1h-2a.5.5 0 0 0 0 1h11a.5.5 0 0 0 0-1h-2v-1a.5.5 0 0 0-.5-.5h-6zm0 1H8v1a.5.5 0 0 0 1 0v-1h2v1a.5.5 0 0 0 1 0v-1h1.5a.5.5 0 0 0 .5-.5v-1a.5.5 0 0 0-.5-.5h-11a.5.5 0 0 0-.5.5v1a.5.5 0 0 0 .5.5zm3.5 8a.5.5 0 0 0-.5.5v3a.5.5 0 0 0 1 0v-3a.5.5 0 0 0-.5-.5zm3 0a.5.5 0 0 0-.5.5v3a.5.5 0 0 0 1 0v-3a.5.5 0 0 0-.5-.5zm-6.5 0a.5.5 0 0 0-.5.5v3a.5.5 0 0 0 1 0v-3a.5.5 0 0 0-.5-.5z"/>
</svg>
